<svg width="512" height="512" viewBox="0 0 512 512" fill="none" xmlns="http://www.w3.org/2000/svg">
  <!-- Background -->
  <rect width="512" height="512" rx="112" fill="#0B132B" />
  
  <!-- Outer Gold Frame -->
  <rect x="16" y="16" width="480" height="480" rx="96" stroke="#d4af37" stroke-width="2" stroke-opacity="0.25" />
  
  <!-- Buta Path -->
  <path 
    d="M 256 410 C 176 410, 128 340, 128 250 C 128 160, 200 110, 256 60 C 284 35, 296 15, 296 0 C 296 -8, 291 -8, 285 0 C 264 32, 232 75, 232 125 C 232 175, 280 215, 323 260 C 365 305, 365 360, 336 390 C 320 410, 288 410, 256 410 Z" 
    stroke="url(#logoGoldGrad)" 
    stroke-width="8" 
    stroke-linecap="round" 
    stroke-linejoin="round"
  />
  
  <!-- Inner Detail Buta -->
  <path 
    d="M 256 380 C 200 380, 160 325, 160 250 C 160 175, 215 135, 256 95 C 270 82, 274 68, 274 60 C 274 55, 271 55, 268 60 C 255 78, 239 110, 239 135 C 239 175, 274 205, 305 240 C 336 275, 336 320, 312 345 C 300 360, 280 380, 256 380 Z" 
    stroke="url(#logoGoldGrad)" 
    stroke-width="3.5" 
    stroke-dasharray="8 8"
    stroke-linecap="round" 
    stroke-linejoin="round"
    stroke-opacity="0.75"
  />

  <defs>
    <linearGradient id="logoGoldGrad" x1="128" y1="0" x2="336" y2="410" gradientUnits="userSpaceOnUse">
      <stop offset="0%" stopColor="#e5c158" />
      <stop offset="50%" stopColor="#d4af37" />
      <stop offset="100%" stopColor="#b8860b" />
    </linearGradient>
  </defs>
</svg>
